<svg width="54" height="54" viewBox="0 0 54 54" fill="none" xmlns="http://www.w3.org/2000/svg">
<g clip-path="url(#clip0_99_398)">
<path d="M53.3682 34.1565L45.4522 9.78247H47.4424C48.2599 9.78247 48.9224 9.11992 48.9224 8.30247C48.9224 7.48501 48.2599 6.82247 47.4424 6.82247H28.2003V3.69802C28.2003 2.88057 27.5377 2.21802 26.7203 2.21802C25.9028 2.21802 25.2403 2.88057 25.2403 3.69802V6.82247H5.99811C5.18065 6.82247 4.51811 7.48501 4.51811 8.30247C4.51811 9.11992 5.18065 9.78247 5.99811 9.78247H7.98838L0.0723445 34.1565C-0.0934157 34.6669 0.0300823 35.227 0.395149 35.6203L3.03695 38.4674C4.83499 40.405 7.38207 41.5163 10.0254 41.5163C12.6686 41.5163 15.2157 40.405 17.0136 38.4674L19.6554 35.6203C20.0205 35.227 20.144 34.6669 19.9782 34.1565L12.0622 9.78247H25.2403V43.987H19.238C16.0644 43.987 13.4825 46.5689 13.4825 49.7425C13.4825 50.56 14.145 51.2225 14.9625 51.2225H38.4781C39.2955 51.2225 39.9581 50.56 39.9581 49.7425C39.9581 46.5689 37.3761 43.987 34.2025 43.987H28.2003V9.78247H41.3784L33.4623 34.1565C33.2966 34.6669 33.4201 35.227 33.7851 35.6203L36.4269 38.4674C38.2248 40.405 40.7719 41.5163 43.4152 41.5163C46.0583 41.5163 48.6055 40.405 50.4036 38.4674L53.0454 35.6203C53.4105 35.227 53.534 34.6669 53.3682 34.1565ZM14.8439 36.4539C13.5859 37.8096 11.8747 38.5562 10.0254 38.5562C8.17601 38.5562 6.46464 37.8096 5.20663 36.4539L4.79602 36.0114H15.2545L14.8439 36.4539ZM16.5071 33.0514H3.54344L10.0254 13.0937L16.5071 33.0514ZM34.2025 46.947C35.2008 46.947 36.0786 47.473 36.5733 48.2625H16.8672C17.3619 47.473 18.2397 46.947 19.238 46.947H34.2025ZM48.2337 36.4539C46.9759 37.8096 45.2645 38.5562 43.4152 38.5562C41.5658 38.5562 39.8546 37.8096 38.5966 36.4539L38.186 36.0114H48.6444L48.2337 36.4539ZM36.9334 33.0514L43.4152 13.0937L49.8969 33.0514H36.9334Z" fill="#FAF1EB"/>
</g>
<defs>
<clipPath id="clip0_99_398">
<rect width="53.4407" height="53.4407" fill="white"/>
</clipPath>
</defs>
</svg>
