<svg width="42" height="42" viewBox="0 0 42 42" fill="none" xmlns="http://www.w3.org/2000/svg">
<path d="M28 36.75V8.75C28 7.82174 27.6313 6.9315 26.9749 6.27513C26.3185 5.61875 25.4283 5.25 24.5 5.25H17.5C16.5717 5.25 15.6815 5.61875 15.0251 6.27513C14.3687 6.9315 14 7.82174 14 8.75V36.75M7 12.25H35C36.933 12.25 38.5 13.817 38.5 15.75V33.25C38.5 35.183 36.933 36.75 35 36.75H7C5.067 36.75 3.5 35.183 3.5 33.25V15.75C3.5 13.817 5.067 12.25 7 12.25Z" stroke="#898989" stroke-width="4" stroke-linecap="round" stroke-linejoin="round"/>
</svg>
